<svg width="30" height="33" viewBox="0 0 30 33" fill="none" xmlns="http://www.w3.org/2000/svg">
<g clip-path="url(#clip0)">
<path d="M20 0.257812H10C4.47715 0.257812 0 4.73497 0 10.2578V22.6163C0 28.1391 4.47715 32.6163 10 32.6163H20C25.5228 32.6163 30 28.1391 30 22.6163V10.2578C30 4.73496 25.5228 0.257812 20 0.257812Z" fill="#6C6F7A"/>
<path d="M15 7.25781C17.21 7.25781 19 9.04781 19 11.2578C19 13.4678 17.21 15.2578 15 15.2578C12.79 15.2578 11 13.4678 11 11.2578C11 9.04781 12.79 7.25781 15 7.25781ZM15 23.2578C15 23.2578 23 23.2578 23 21.2578C23 18.8578 19.1 16.2578 15 16.2578C10.9 16.2578 7 18.8578 7 21.2578C7 23.2578 15 23.2578 15 23.2578Z" fill="white"/>
</g>
<defs>
<clipPath id="clip0">
<rect width="30" height="32.3585" fill="white" transform="translate(0 0.257812)"/>
</clipPath>
</defs>
</svg>
