<svg width="14" height="15" viewBox="0 0 14 15" fill="none" xmlns="http://www.w3.org/2000/svg">
<path d="M3.36638 14.3548C3.29605 14.3259 3.16778 14.2887 3.05607 14.2185C2.0796 13.5866 1.18588 12.8555 0.399736 11.9964C-0.00988483 11.5504 0.0108032 11.3439 0.507314 10.9887C1.37207 10.3691 2.2782 9.80743 3.23812 9.34485C3.82152 9.06399 3.91668 9.09291 4.34699 9.5844C4.59525 9.86938 4.84764 10.1461 5.09589 10.4311C5.15796 10.5013 5.22002 10.5137 5.31105 10.4848C6.26269 10.2204 7.10262 9.74548 7.85566 9.11355C8.95212 8.19252 9.72999 7.04846 10.1396 5.66897C10.1686 5.57811 10.1562 5.51615 10.0858 5.45007C9.78792 5.18987 9.49001 4.92141 9.1921 4.6612C8.74938 4.2647 8.72042 4.17384 8.97695 3.63691C9.44863 2.64567 10.0362 1.72463 10.6692 0.832509C10.7354 0.741645 10.8182 0.659041 10.9009 0.584698C11.0664 0.444271 11.1988 0.43601 11.3809 0.555786C11.4802 0.621869 11.5754 0.692083 11.6622 0.770556C12.4815 1.52225 13.1725 2.38133 13.8096 3.28998C13.9958 3.55018 14.0248 3.81451 13.971 4.12015C13.7848 5.15683 13.3918 6.11916 12.8787 7.03194C11.9022 8.76662 10.6237 10.2494 9.10522 11.5297C8.00048 12.459 6.81299 13.252 5.46828 13.8055C4.81454 14.0739 4.14011 14.2722 3.36638 14.3548Z" fill="white"/>
</svg>
