<svg width="60" height="38" viewBox="0 0 60 38" fill="none" xmlns="http://www.w3.org/2000/svg">
<path d="M60.0001 32.6655L59.8955 32.4565L59.791 32.1951C58.2753 32.7701 56.9164 32.7178 55.6621 32.0906C51.5854 30.1046 49.1812 22.4216 46.8816 15.0523C44.6865 7.83975 42.5436 1.09759 39.0419 0.104556C37.5784 -0.313562 36.0628 0.313615 34.2858 1.88156C31.7771 4.28574 29.4774 9.35543 27.1778 14.3206C24.5122 20.2265 21.69 26.2892 19.0244 26.5506C17.2474 26.7073 15.3659 24.3032 13.4321 21.7945C10.1394 17.561 6.06277 12.2823 5.61327e-05 16.0976L0.104586 16.3066C0.0523209 16.3589 5.61327e-05 16.3589 -0.0522087 16.4112L0.0523209 16.568C5.61327e-05 16.6202 -0.0522087 16.6202 -0.104473 16.6725L5.61327e-05 16.8293C-0.0522087 16.8816 -0.104473 16.8816 -0.156738 16.9338L5.61327e-05 17.0906C-0.0522087 17.1429 -0.104473 17.1952 -0.156738 17.1952L0.209115 17.561C1.568 16.2544 2.87462 15.7317 4.12898 15.9931C7.42166 16.6725 10.1394 22.6307 12.4913 27.9094C14.8955 33.2404 16.9339 37.8397 19.5471 37.8397C19.5994 37.8397 19.6516 37.8397 19.7039 37.8397C23.4147 37.5262 24.8258 32.561 26.446 26.7596C27.5959 22.6307 28.8502 17.9791 31.2021 14.6864C33.2927 11.8641 35.122 10.5575 36.8467 10.7143C39.9304 10.9756 42.3868 15.8363 45.0001 21.0105C47.7701 26.4983 50.5924 32.1429 54.669 33.3972C56.446 33.9199 58.223 33.6586 60.0001 32.6655ZM12.8049 25.0871C15.1046 29.1638 17.0906 32.6655 19.4948 32.4565C22.8398 32.1951 24.9304 26.4983 27.1778 20.5401C28.8502 15.9931 30.6272 11.2892 32.9791 8.46693C34.7561 6.37633 36.3764 5.48783 37.8398 5.69689C40.9757 6.21954 43.2753 11.9164 45.6795 17.9791C46.9861 21.3241 48.345 24.7213 49.9129 27.4391C48.4495 25.0349 47.1429 22.108 45.8363 19.2335C43.2753 13.4843 40.8189 8.04881 37.4217 7.68295C35.6447 7.47389 33.7631 8.62372 31.7248 11.237C29.2683 14.3728 27.8049 18.9722 26.3415 23.4669C24.5645 29.1115 22.8398 34.3903 19.6516 34.6516C17.4565 34.8607 15.3659 30.6795 13.1708 26.2892C12.23 24.46 11.3415 22.5784 10.3485 20.906C11.237 22.2648 12.021 23.676 12.8049 25.0871ZM9.56451 18.8676C10.7666 20.331 11.8642 22.0035 12.9095 23.6237C15.1568 27.0209 17.0384 29.9478 19.2858 29.791C22.4739 29.5296 24.8781 23.676 27.3868 17.561C29.3206 12.8572 31.3589 7.94428 33.7631 5.43557C35.4356 3.65856 36.9513 2.92686 38.2579 3.24044C41.5506 3.86762 43.6934 10.0349 45.9931 16.568C47.1429 19.8607 48.345 23.1533 49.7039 25.9756C48.4495 23.5192 47.2997 20.6446 46.2021 17.8223C43.6934 11.6551 41.3938 5.80142 37.9443 5.22651C36.2718 4.96518 34.5471 5.90595 32.6133 8.15334C30.1568 11.0279 28.3798 15.784 26.7074 20.3833C24.5645 26.237 22.5262 31.7248 19.4948 31.9861C17.4565 32.1429 15.4182 28.6411 13.3276 24.8781C12.1255 22.7875 10.9234 20.6446 9.56451 18.8676ZM13.014 22.108C15.1568 24.8781 16.9861 27.2823 19.0767 27.0732C22.0558 26.8119 24.7736 20.8537 27.6481 14.5296C29.8955 9.61675 32.1952 4.59933 34.5994 2.24741C36.1673 0.783999 37.5785 0.261351 38.8328 0.627204C42.1255 1.51571 44.2161 8.15334 46.4112 15.1568C47.4565 18.5018 48.5018 21.9512 49.7561 24.8781C48.6063 22.2648 47.561 19.338 46.5157 16.4112C44.1638 9.72128 41.9164 3.39724 38.467 2.66553C36.899 2.35194 35.2788 3.08365 33.4495 5.01745C30.9408 7.63069 28.9025 12.5436 26.9687 17.2997C24.46 23.3101 22.1081 29.007 19.2335 29.2683C17.2997 29.4251 15.3659 26.4983 13.3276 23.3624C11.9687 21.3241 10.5575 19.0767 8.88507 17.4565C10.4008 18.7108 11.7596 20.4356 13.014 22.108ZM37.0558 10.1917C35.122 10.0349 33.1359 11.3938 30.9408 14.3728C28.5366 17.7701 27.23 22.4739 26.0802 26.6551C24.5122 32.2474 23.2056 37.108 19.8084 37.3171C17.4565 37.4739 15.3136 32.7178 13.0663 27.7004C12.3868 26.1324 11.6551 24.6168 10.9757 23.1533C11.5506 24.2509 12.1255 25.4007 12.7004 26.5506C15.0001 31.2021 17.0384 35.2265 19.4948 35.2265C19.5471 35.2265 19.5994 35.2265 19.7039 35.2265C23.2579 34.9652 24.9304 29.7387 26.8642 23.7283C28.3276 19.2335 29.791 14.6342 32.1952 11.6028C34.129 9.14637 35.8014 8.04881 37.4217 8.25787C40.5053 8.62372 42.9095 13.9025 45.4182 19.5471C46.8293 22.7352 48.2927 25.9756 50.0175 28.5366C48.4495 26.2892 47.0906 23.5192 45.6795 20.8014C42.9617 15.4704 40.453 10.453 37.0558 10.1917Z" fill="#00B5FF"/>
</svg>
