<svg width="70" height="90" viewBox="0 0 70 90" fill="none" xmlns="http://www.w3.org/2000/svg">
<path d="M64.42 40.53L69.7 35.2425C69.88 35.0021 70 34.7618 70 34.4614C70 34.1609 69.88 33.8605 69.7 33.6803L66.34 30.3155C65.92 29.8948 65.2 29.8948 64.78 30.3155L59.5 35.603L54.22 30.3155C53.8 29.8948 53.08 29.8948 52.66 30.3155L49.3 33.6803C49.12 33.9206 49 34.1609 49 34.4614C49 34.7618 49.12 35.0622 49.3 35.2425L54.58 40.47L49.3 45.7575C49.12 45.9979 49 46.2382 49 46.5386C49 46.8391 49.12 47.1395 49.3 47.3197L52.66 50.6845C53.08 51.1052 53.8 51.1052 54.22 50.6845L59.5 45.397L64.72 50.6845C64.96 50.8648 65.2 50.985 65.5 50.985C65.8 50.985 66.1 50.9249 66.34 50.7446L69.7 47.3798C69.88 47.1395 70 46.8991 70 46.5987C70 46.2983 69.88 45.9979 69.7 45.8176L64.42 40.53ZM65.56 48.3412L60.28 43.0536C60.04 42.8734 59.8 42.7532 59.5 42.7532C59.2 42.7532 58.96 42.8734 58.66 43.1738L53.38 48.4614L51.52 46.5987L56.8 41.3112C57.22 40.8906 57.22 40.1695 56.8 39.7489L51.52 34.4614L53.38 32.5987L58.66 37.8863C59.08 38.3069 59.8 38.3069 60.22 37.8863L65.5 32.5987L67.42 34.3412L62.14 39.6288C61.72 40.0494 61.72 40.7704 62.14 41.191L67.42 46.4785L65.56 48.3412Z" fill="#00B5FF"/>
<path d="M29 31C29 34.2885 31.6667 37 34.971 37C38.2754 37 41 34.3462 41 31C41 27.7115 38.3333 25 34.971 25C31.6087 25 29 27.7115 29 31ZM34.971 27.7115C36.8261 27.7115 38.2754 29.2115 38.2754 31C38.2754 32.8462 36.7681 34.2885 34.971 34.2885C33.1159 34.2885 31.6667 32.7885 31.6667 31C31.6667 29.2115 33.1739 27.7115 34.971 27.7115Z" fill="#00B5FF"/>
<path d="M47 50.6745V42.4527C47 40.8693 45.9697 39.3467 44.5152 38.7986L40.2121 37.1543C39.5455 36.9106 38.8182 37.1543 38.5152 37.7633L34.9394 43.8535L31.4242 37.7024C31.0606 37.0934 30.3333 36.8497 29.7273 37.0934L25.4848 38.7377C23.9697 39.3467 23 40.8084 23 42.3918V50.6136C23 53.0497 24.9394 54.9986 27.3636 54.9986H42.6364C45 55.0595 47 53.1106 47 50.6745ZM25.7273 50.6745V42.4527C25.7273 42.0264 26.0303 41.6001 26.4545 41.4174L29.6061 40.1994L33.7273 47.3858C33.9697 47.8121 34.4545 48.1167 34.9394 48.1167C35.4242 48.1167 35.9091 47.873 36.1515 47.3858L40.3333 40.1994L43.4848 41.4174C43.9091 41.6001 44.2121 41.9655 44.2121 42.4527V50.6745C44.2121 51.5272 43.4848 52.258 42.6364 52.258H27.3636C26.4545 52.258 25.7273 51.5272 25.7273 50.6745Z" fill="#00B5FF"/>
<path d="M45 21.4178C45 22.2192 45.5914 22.8356 46.3602 22.8356H53.2796V27.5822C53.2796 28.3836 53.871 29 54.6398 29C55.4086 29 56 28.3836 56 27.5822V21.4178C56 20.6164 55.4086 20 54.6398 20H46.3602C45.6505 20 45 20.6164 45 21.4178Z" fill="#00B5FF"/>
<path d="M54.6398 54C53.871 54 53.2796 54.6349 53.2796 55.4603V59.0794H46.3602C45.5914 59.0794 45 59.7143 45 60.5397C45 61.3651 45.5914 62 46.3602 62H54.6398C55.4086 62 56 61.3651 56 60.5397V55.4603C56 54.6349 55.3495 54 54.6398 54Z" fill="#00B5FF"/>
<path d="M16.7204 29.6398V22.7204H23.6398C24.4086 22.7204 25 22.129 25 21.3602C25 20.5914 24.4086 20 23.6398 20H15.3602C14.5914 20 14 20.5914 14 21.3602V29.6398C14 30.4086 14.5914 31 15.3602 31C16.129 31 16.7204 30.3495 16.7204 29.6398Z" fill="#00B5FF"/>
<path d="M15.3602 62H23.6398C24.4086 62 25 61.4086 25 60.6398C25 59.871 24.4086 59.2796 23.6398 59.2796H16.7204V52.3602C16.7204 51.5914 16.129 51 15.3602 51C14.5914 51 14 51.5914 14 52.3602V60.6398C14 61.4086 14.5914 62 15.3602 62Z" fill="#00B5FF"/>
<path d="M10 40.5C10 41.3478 10.6452 42 11.4839 42H14.5161C15.3548 42 16 41.3478 16 40.5C16 39.6522 15.3548 39 14.5161 39H11.5484C10.7097 39 10 39.6522 10 40.5Z" fill="#00B5FF"/>
<path d="M37 20.5V17.5C37 16.6522 36.3478 16 35.5 16C34.6522 16 34 16.6522 34 17.5V20.5C34 21.3478 34.6522 22 35.5 22C36.3478 22 37 21.2826 37 20.5Z" fill="#00B5FF"/>
<path d="M33 61.5V64.5C33 65.3478 33.6522 66 34.5 66C35.3478 66 36 65.3478 36 64.5V61.5C36 60.6522 35.3478 60 34.5 60C33.6522 60 33 60.7174 33 61.5Z" fill="#00B5FF"/>
<path d="M31.8657 5H14.1343C13.5373 5 13 5.47368 13 6C13 6.52632 13.4776 7 14.1343 7H31.806C32.4627 7 33 6.52632 33 6C33 5.47368 32.5224 5 31.8657 5Z" fill="#00B5FF"/>
<path d="M21.1875 86H25.8125C27.5625 86 29 84.625 29 82.8125V78.1875C29 76.4375 27.5625 75 25.8125 75H21.1875C19.4375 75 18 76.4375 18 78.1875V82.8125C18 84.5625 19.4375 86 21.1875 86ZM20.4375 78.25C20.4375 77.8125 20.75 77.5 21.1875 77.5H25.8125C26.25 77.5 26.5625 77.8125 26.5625 78.25V82.875C26.5625 83.3125 26.25 83.625 25.8125 83.625H21.1875C20.75 83.625 20.4375 83.3125 20.4375 82.875V78.25Z" fill="#00B5FF"/>
<path d="M0.998003 32C1.57579 32 2.04853 31.4273 1.99601 30.7909V26.2091C1.99601 25.5727 1.57579 25 0.998003 25C0.472738 25 0 25.5091 0 26.2091V30.7909C0 31.4273 0.420212 32 0.998003 32Z" fill="#00B5FF"/>
<path d="M1.13066 19C1.78525 19 2.32083 18.5205 2.26132 17.8612V16.4826C2.32083 16.3628 2.32083 16.2429 2.32083 16.123V13.0662V12.1073H43.6197V16.7224V16.9621H45.9405V16.7224H46V6.1735C46 2.7571 43.2626 0 39.8706 0H6.12937C2.73739 0 0 2.7571 0.0595084 6.1735V10.5489C0 10.6688 0 10.7886 0 10.9085V15.5237V16.123V17.8612C0 18.4606 0.476067 19 1.13066 19ZM2.32083 6.1735C2.32083 4.07571 4.04657 2.33754 6.12937 2.33754H39.8111C41.8939 2.33754 43.6197 4.07571 43.6197 6.1735V9.76972H2.32083V6.1735Z" fill="#00B5FF"/>
<path d="M43.6762 71.4372H2.26425V42.7163V42.1116C2.26425 41.9907 2.26425 41.9302 2.20466 41.8698C2.20466 41.7488 2.26425 41.6279 2.26425 41.507V39.1488C2.26425 38.5442 1.78756 38 1.13212 38C0.536269 38 0 38.4837 0 39.1488V41.507C0 41.6279 0 41.6884 0.0595855 41.8093C0 41.9302 0 41.9907 0 42.1116V42.7163V72.586V83.7721C0 87.2186 2.74093 90 6.13731 90H39.8627C43.2591 90 46 87.2186 46 83.7721V72.586V65.5116V64.5442H43.6762V71.4372ZM43.6762 83.7721C43.6762 85.8884 41.9482 87.6419 39.8627 87.6419H6.07772C3.99223 87.6419 2.26425 85.8884 2.26425 83.7721V73.7349H43.6762V83.7721Z" fill="#00B5FF"/>
</svg>
