<svg width="91" height="90" viewBox="0 0 91 90" fill="none" xmlns="http://www.w3.org/2000/svg">
<path d="M48.7512 7H13.1596C12.5352 7 12 7.5407 12 8.26163V36.7384C12 37.3692 12.446 38 13.1596 38H48.8404C49.4648 38 50 37.4593 50 36.7384V8.26163C49.9108 7.5407 49.3756 7 48.7512 7ZM47.5915 35.4767H14.3192V9.43314H47.5915V35.4767Z" fill="#00B5FF"/>
<path d="M5.20958 74L0 88H75L69.7904 74H5.20958ZM4.76048 84.7421L7.54491 77.2579H67.5449L70.3293 84.7421H4.76048Z" fill="#00B5FF"/>
<path d="M88.2475 76.6364C87.5251 73.9091 84.9968 72 82.288 72C81.8365 72 81.2044 72.0909 80.7529 72.1818C77.412 73 75.4255 76.2727 76.1479 79.6364L77.412 85.0909C78.0441 88 80.5723 90 83.4618 90C83.9133 90 84.5454 89.9091 84.9968 89.8182L85.2677 89.7273C86.893 89.2727 88.2475 88.2727 89.1504 86.7273C89.9631 85.2727 90.234 83.5455 89.7825 81.8182L88.2475 76.6364ZM86.1707 85.0909C85.8095 85.7273 85.0871 86.2727 84.3648 86.4545L84.0939 86.5455C83.823 86.6364 83.6424 86.6364 83.3715 86.6364C82.0171 86.6364 80.8432 85.6364 80.5723 84.3636L79.3082 78.9091C78.947 77.3636 79.9403 75.8182 81.4753 75.3636C81.7462 75.2727 81.9268 75.2727 82.1977 75.2727C83.4618 75.2727 84.6357 76.0909 84.9968 77.4545L86.4416 82.8182C86.7125 83.6364 86.5319 84.4545 86.1707 85.0909Z" fill="#00B5FF"/>
<path d="M76.9643 59.2601L82.6786 65L85 62.6682L79.2857 56.9283L83.3036 52.8924L65 45L72.8571 63.3856L76.9643 59.2601ZM77.6786 53.9686L74.1071 57.5561L71.3393 51.278L77.6786 53.9686Z" fill="#00B5FF"/>
<path d="M56.402 60.375H58.8347V57.0508H3.33366V53.5469H58.8347V50.3125H3.33366V3.32422H87.6663V10.8711H91V0H0V60.375H35.7693V65.6758H24.2366V69H67.9347V65.6758H56.402V60.375ZM53.0683 65.6758H39.103V60.375H53.0683V65.6758Z" fill="#00B5FF"/>
<path d="M75.412 21.5L80.7296 16.2389C80.9099 15.9713 81 15.793 81 15.4363C81 15.1688 80.9099 14.8121 80.7296 14.6338L77.3948 11.3344C76.9442 10.8885 76.2232 10.8885 75.8627 11.3344L70.4549 16.6847L65.1373 11.4236C64.6867 10.9777 63.9657 10.9777 63.6051 11.4236L60.2704 14.7229C60.0901 14.9904 60 15.1688 60 15.5255C60 15.793 60.0901 16.1497 60.2704 16.328L65.588 21.5L60.2704 26.7611C60.0901 27.0287 60 27.207 60 27.5637C60 27.8312 60.0901 28.1879 60.2704 28.3662L63.6051 31.6656C64.0558 32.1115 64.7768 32.1115 65.1373 31.6656L70.4549 26.4045L75.6824 31.6656C75.9528 31.8439 76.133 31.9331 76.4936 31.9331C76.7639 31.9331 77.1245 31.8439 77.3047 31.6656L80.6395 28.3662C80.8197 28.0987 80.9099 27.9204 80.9099 27.5637C80.9099 27.2962 80.8197 26.9395 80.6395 26.7611L75.412 21.5ZM76.5837 29.258L71.2661 23.9968C70.9957 23.8185 70.8154 23.7293 70.4549 23.7293C70.1845 23.7293 69.9142 23.8185 69.6438 24.1752L64.3262 29.4363L62.4335 27.5637L67.7511 22.3025C68.2017 21.8567 68.2017 21.1433 67.7511 20.7866L62.4335 15.5255L64.3262 13.6529L69.6438 18.914C70.0944 19.3599 70.8155 19.3599 71.176 18.914L76.4936 13.6529L78.3863 15.3471L73.0687 20.6083C72.618 21.0541 72.618 21.7675 73.0687 22.1242L78.3863 27.3854L76.5837 29.258Z" fill="#00B5FF"/>
<path d="M15.75 42H13.25C12.5769 42 12 42.4615 12 43C12 43.5385 12.4808 44 13.25 44H15.75C16.4231 44 17 43.5385 17 43C17 42.4615 16.4231 42 15.75 42Z" fill="#00B5FF"/>
<path d="M25.7419 42H22.2581C21.5806 42 21 42.4615 21 43C21 43.5385 21.4839 44 22.2581 44H25.7419C26.4194 44 27 43.5385 27 43C27 42.4615 26.5161 42 25.7419 42Z" fill="#00B5FF"/>
<path d="M34.5206 42C34.325 42.0741 34.0316 42.0741 33.8361 42.0741H32.2713C31.5868 42.0741 31 42.5185 31 43.037C31 43.5556 31.489 44 32.2713 44H33.8361C34.2272 44 34.6184 44 34.9118 43.9259C35.5964 43.8519 36.0853 43.4074 35.9875 42.8148C35.7919 42.2963 35.2052 42 34.5206 42Z" fill="#00B5FF"/>
<path d="M37.0319 13.1244C36.5854 12.8605 35.9604 13.0364 35.6925 13.4762C35.6032 13.74 35.5139 13.9159 35.6032 14.2677C35.6925 14.5315 35.8711 14.7074 36.0497 14.8833C40.4251 17.4337 42.2109 22.7984 40.1572 27.3715V23.1501C40.1572 22.0068 39.3535 20.8636 38.282 20.4238C38.1927 20.4238 38.1927 20.3359 38.1927 20.3359L34.8888 19.7203C34.6209 19.6323 34.3531 19.7203 34.0852 19.8082C33.8173 19.8962 33.728 20.16 33.6387 20.4238C33.5494 20.9515 33.9066 21.4792 34.4424 21.5671L37.5676 22.2707C37.9248 22.3586 38.1034 22.7104 38.1034 23.0622V31.0652H37.1212V26.2282C37.1212 25.7005 36.6747 25.2608 36.1389 25.2608C35.6032 25.2608 35.1567 25.7005 35.1567 26.2282V31.0652H26.8524V26.2282C26.8524 25.7005 26.4059 25.2608 25.8701 25.2608C25.3344 25.2608 24.7093 25.7005 24.7093 26.2282V31.0652H23.8164V23.0622C23.8164 22.7104 24.0843 22.3586 24.2628 22.2707L27.4774 21.5671C28.0132 21.4792 28.3704 20.9515 28.2811 20.4238C28.1918 20.16 28.0132 19.9841 27.8346 19.8082C27.5667 19.7203 27.3881 19.6323 27.031 19.7203L23.8164 20.3359C23.7271 20.3359 23.7271 20.3359 23.7271 20.4238C22.5663 20.8636 21.8519 21.9189 21.8519 23.1501V27.2836C20.6018 24.4693 20.6911 21.3033 22.2091 18.577C23.0127 16.994 24.3521 15.6748 25.8701 14.7953C26.3166 14.5315 26.4952 13.9159 26.2273 13.4762C26.138 13.2123 25.8701 13.0364 25.6023 13.0364C25.3344 12.9485 25.0665 13.0364 24.7986 13.1244C22.9234 14.2677 21.4947 15.7627 20.4232 17.6096C18.6373 20.8636 18.548 24.7331 20.066 28.163C20.2446 28.5148 20.6018 28.7786 20.959 28.7786C21.0483 28.7786 21.2268 28.6907 21.4054 28.6907C21.584 28.6027 21.7626 28.4268 21.8519 28.251V31.5929C21.8519 32.3844 22.477 33 23.2806 33H38.7285C39.5321 33 40.1572 32.3844 40.1572 31.5929V28.251C40.2465 28.4268 40.4251 28.6027 40.6036 28.6907C40.6929 28.7786 40.8715 28.7786 41.0501 28.7786C41.4966 28.7786 41.8538 28.5148 41.9431 28.163C44.4433 22.6225 42.3895 16.1145 37.0319 13.1244Z" fill="#00B5FF"/>
<path d="M32 22C34.7358 22 37 19.757 37 17.0467C37 14.3364 34.7358 12 32 12C29.2642 12 27 14.243 27 16.9533C27 19.6636 29.1698 22 32 22ZM32 14.1495C33.6038 14.1495 34.9245 15.4579 34.9245 17.0467C34.9245 18.6355 33.6038 19.9439 32 19.9439C30.3962 19.9439 29.0755 18.6355 29.0755 17.0467C29.0755 15.4579 30.3962 14.1495 32 14.1495Z" fill="#00B5FF"/>
</svg>
