<svg width="100" height="100" viewBox="0 0 100 100" fill="none" xmlns="http://www.w3.org/2000/svg">
<path d="M67.2775 11H16.6364C15.7751 11 15 11.6756 15 12.6044V47.3956C15 48.24 15.689 49 16.6364 49H67.3636C68.2249 49 69 48.3244 69 47.3956V12.6044C68.9139 11.6756 68.2249 11 67.2775 11ZM65.6412 45.7911H18.2727V14.2089H65.6412V45.7911Z" fill="#00B5FF"/>
<path d="M42 44C49.6914 44 56 37.6914 56 30C56 22.3086 49.6914 16 42 16C34.3086 16 28 22.3086 28 30C28 37.6914 34.3086 44 42 44ZM42 19.284C47.963 19.284 52.716 24.1235 52.716 30C52.716 35.963 47.8765 40.7161 42 40.7161C36.037 40.7161 31.2839 35.8765 31.2839 30C31.2839 24.037 36.1235 19.284 42 19.284Z" fill="#00B5FF"/>
<path d="M37.8427 38.8232C38.0955 39 38.3483 39 38.6011 39C38.8539 39 39.191 38.9116 39.4438 38.7348L51.2416 31.3983C51.7472 31.1331 52 30.5144 52 29.984C52 29.3653 51.6629 28.8349 51.2416 28.5697L39.4438 21.2332C38.9382 20.968 38.3483 20.8796 37.8427 21.2332C37.3371 21.4984 37 22.1171 37 22.6475V37.3205C37.0843 37.9393 37.4213 38.4697 37.8427 38.8232ZM40.2865 25.5644L47.3652 29.984L40.2865 34.4036V25.5644Z" fill="#00B5FF"/>
<path d="M5.72646 83L0 99H83L77.2735 83H5.72646ZM5.25487 95.3077L8.28653 86.7607H74.7135L77.7451 95.3077H5.25487Z" fill="#00B5FF"/>
<path d="M97.2408 85.137C96.4482 82.1233 93.7401 80 90.7677 80C90.2393 80 89.6448 80.0685 89.1164 80.2055C85.5496 81.1644 83.3699 84.7945 84.1625 88.4931L85.4835 94.5205C86.2101 97.7397 88.8522 100 92.0227 100C92.5511 100 93.1456 99.9315 93.674 99.7945L93.9382 99.726C95.7216 99.2466 97.1748 98.0822 98.0995 96.4384C99.0242 94.7945 99.2224 92.8767 98.76 91.0274L97.2408 85.137ZM95.0611 94.589C94.6648 95.3425 93.9382 95.8904 93.0795 96.0959L92.8153 96.1644C92.5511 96.2329 92.2869 96.2329 92.0227 96.2329C90.5696 96.2329 89.3146 95.137 88.9843 93.6986L87.6633 87.6712C87.267 85.9589 88.3238 84.2466 89.9751 83.7671C90.2393 83.6986 90.5035 83.6986 90.7677 83.6986C92.1548 83.6986 93.4098 84.6575 93.8061 86.0959L95.3914 92.0548C95.5895 92.9452 95.4574 93.8356 95.0611 94.589Z" fill="#00B5FF"/>
<path d="M61.9463 67.409H64.6309V63.7359H3.69128V59.8587H64.698V56.1855H3.69128V3.67315H96.3758V12.1078H100V0H0V67.409H39.2617V73.3269H26.6443V77H74.6309V73.3269H61.9463V67.409ZM58.3222 73.3269H42.953V67.409H58.3222V73.3269Z" fill="#00B5FF"/>
<path d="M92.5333 45.0425L99.5758 37.9894C99.8303 37.6495 100 37.3096 100 36.9697C100 36.5448 99.8303 36.2049 99.5758 35.9499L95.0788 31.4461C94.4848 30.8513 93.5515 30.8513 93.0424 31.4461L86 38.4992L78.9576 31.4461C78.3636 30.8513 77.4303 30.8513 76.9212 31.4461L72.4242 35.9499C72.1697 36.2898 72 36.6297 72 36.9697C72 37.3945 72.1697 37.7344 72.4242 37.9894L79.4667 44.9575L72.4242 52.0106C72.1697 52.3505 72 52.6904 72 53.0303C72 53.4552 72.1697 53.7951 72.4242 54.0501L76.9212 58.5539C77.5152 59.1487 78.4485 59.1487 78.9576 58.5539L86 51.5008L92.9576 58.5539C93.297 58.8088 93.6364 58.9788 93.9758 58.9788C94.4 58.9788 94.7394 58.8938 95.0788 58.6388L99.5758 54.1351C99.8303 53.7951 100 53.4552 100 53.1153C100 52.6904 99.8303 52.3505 99.5758 52.0956L92.5333 45.0425ZM93.9758 55.4097L86.9333 48.3566C86.5939 48.1017 86.2545 47.9317 85.9152 47.9317C85.4909 47.9317 85.2364 48.1017 84.8121 48.5266L77.7697 55.5797L75.3091 53.1153L82.3515 46.0622C82.9455 45.4674 82.9455 44.5326 82.3515 44.0228L75.3091 36.9697L77.7697 34.5053L84.8121 41.5584C85.4061 42.1533 86.3394 42.1533 86.8485 41.5584L93.8909 34.5053L96.4364 36.7997L89.3939 43.8528C88.8 44.4476 88.8 45.3824 89.3939 45.8923L96.4364 52.9454L93.9758 55.4097Z" fill="#00B5FF"/>
</svg>
