<svg width="150" height="150" viewBox="0 0 150 150" fill="none" xmlns="http://www.w3.org/2000/svg">
<path d="M117.011 68.8468L124.571 61.2201C124.829 60.8734 125 60.5268 125 60.0934C125 59.6601 124.829 59.2268 124.571 58.9668L119.76 54.1134C119.158 53.5068 118.128 53.5068 117.526 54.1134L109.966 61.7401L102.406 54.1134C101.804 53.5068 100.774 53.5068 100.172 54.1134L95.3612 58.9668C95.1035 59.3134 94.9316 59.6601 94.9316 60.0934C94.9316 60.5268 95.1035 60.9601 95.3612 61.2201L102.921 68.7601L95.3612 76.3868C95.1035 76.7334 94.9316 77.0801 94.9316 77.5134C94.9316 77.9468 95.1035 78.3801 95.3612 78.6401L100.172 83.4935C100.774 84.1001 101.804 84.1001 102.406 83.4935L109.966 75.8668L117.44 83.4935C117.784 83.7535 118.128 83.9268 118.557 83.9268C118.987 83.9268 119.416 83.8401 119.76 83.5801L124.571 78.7268C124.829 78.3801 125 78.0334 125 77.6001C125 77.1668 124.829 76.7334 124.571 76.4734L117.011 68.8468ZM118.643 80.1134L111.083 72.4868C110.739 72.2268 110.396 72.0534 109.966 72.0534C109.536 72.0534 109.193 72.2268 108.763 72.6601L101.203 80.2868L98.5399 77.6001L106.1 69.9734C106.701 69.3668 106.701 68.3268 106.1 67.7201L98.5399 60.0934L101.203 57.4068L108.763 65.0334C109.365 65.6401 110.396 65.6401 110.997 65.0334L118.557 57.4068L121.306 59.9201L113.746 67.5468C113.145 68.1534 113.145 69.1934 113.746 69.8001L121.306 77.4268L118.643 80.1134Z" fill="#00B5FF"/>
<path d="M65.9785 55.5866C65.9785 60.5266 69.9304 64.5999 74.8273 64.5999C79.7242 64.5999 83.762 60.6132 83.762 55.5866C83.762 50.6466 79.8101 46.5732 74.8273 46.5732C69.8445 46.5732 65.9785 50.6466 65.9785 55.5866ZM74.8273 50.6466C77.5765 50.6466 79.7242 52.8999 79.7242 55.5866C79.7242 58.3599 77.4905 60.5266 74.8273 60.5266C72.0782 60.5266 69.9304 58.2732 69.9304 55.5866C69.9304 52.8999 72.1641 50.6466 74.8273 50.6466Z" fill="#00B5FF"/>
<path d="M91.9249 82.9734V71.2734C91.9249 69.0201 90.4644 66.8534 88.4026 66.0734L82.3029 63.7334C81.3579 63.3868 80.327 63.7334 79.8974 64.6001L74.8287 73.2668L69.8459 64.5134C69.3304 63.6468 68.2995 63.3001 67.4404 63.6468L61.4266 65.9868C59.2789 66.8534 57.9043 68.9334 57.9043 71.1868V82.8868C57.9043 86.3534 60.6534 89.1268 64.0899 89.1268H85.7393C89.0899 89.2134 91.9249 86.4401 91.9249 82.9734ZM61.7703 82.9734V71.2734C61.7703 70.6668 62.1998 70.0601 62.8012 69.8001L67.2686 68.0668L73.1105 78.2934C73.4541 78.9001 74.1414 79.3334 74.8287 79.3334C75.516 79.3334 76.2033 78.9868 76.5469 78.2934L82.4747 68.0668L86.9421 69.8001C87.5435 70.0601 87.973 70.5801 87.973 71.2734V82.9734C87.973 84.1868 86.9421 85.2268 85.7393 85.2268H64.0899C62.8012 85.2268 61.7703 84.1868 61.7703 82.9734Z" fill="#00B5FF"/>
<path d="M88.918 40.5068C88.918 41.6334 89.7771 42.5001 90.8939 42.5001H100.945V49.1734C100.945 50.3001 101.805 51.1668 102.921 51.1668C104.038 51.1668 104.897 50.3001 104.897 49.1734V40.5068C104.897 39.3801 104.038 38.5134 102.921 38.5134H90.8939C89.863 38.5134 88.918 39.3801 88.918 40.5068Z" fill="#00B5FF"/>
<path d="M103.007 88.26C101.891 88.26 101.031 89.1267 101.031 90.2533V95.1933H90.9799C89.863 95.1933 89.0039 96.06 89.0039 97.1867C89.0039 98.3133 89.863 99.18 90.9799 99.18H103.007C104.124 99.18 104.983 98.3133 104.983 97.1867V90.2533C104.983 89.1267 104.038 88.26 103.007 88.26Z" fill="#00B5FF"/>
<path d="M48.7117 52.6401V42.5001H58.7632C59.88 42.5001 60.7391 41.6334 60.7391 40.5068C60.7391 39.3801 59.88 38.5134 58.7632 38.5134H46.7357C45.6189 38.5134 44.7598 39.3801 44.7598 40.5068V52.6401C44.7598 53.7668 45.6189 54.6334 46.7357 54.6334C47.8525 54.6334 48.7117 53.6801 48.7117 52.6401Z" fill="#00B5FF"/>
<path d="M46.7357 99.1801H58.7632C59.88 99.1801 60.7391 98.3134 60.7391 97.1867C60.7391 96.0601 59.88 95.1934 58.7632 95.1934H48.7117V85.0534C48.7117 83.9267 47.8525 83.0601 46.7357 83.0601C45.6189 83.0601 44.7598 83.9267 44.7598 85.0534V97.1867C44.7598 98.3134 45.6189 99.1801 46.7357 99.1801Z" fill="#00B5FF"/>
<path d="M39.6055 68.8466C39.6055 69.9733 40.4646 70.8399 41.5814 70.8399H45.6192C46.7361 70.8399 47.5952 69.9733 47.5952 68.8466C47.5952 67.7199 46.7361 66.8533 45.6192 66.8533H41.6673C40.5505 66.8533 39.6055 67.7199 39.6055 68.8466Z" fill="#00B5FF"/>
<path d="M76.8894 39.3799V35.3932C76.8894 34.2666 76.0303 33.3999 74.9134 33.3999C73.7966 33.3999 72.9375 34.2666 72.9375 35.3932V39.3799C72.9375 40.5066 73.7966 41.3732 74.9134 41.3732C76.0303 41.3732 76.8894 40.4199 76.8894 39.3799Z" fill="#00B5FF"/>
<path d="M72.8516 98.3134V102.3C72.8516 103.427 73.7107 104.293 74.8275 104.293C75.9443 104.293 76.8035 103.427 76.8035 102.3V98.3134C76.8035 97.1867 75.9443 96.3201 74.8275 96.3201C73.7107 96.3201 72.8516 97.2734 72.8516 98.3134Z" fill="#00B5FF"/>
<path d="M70.9622 16.6733H45.4468C44.5876 16.6733 43.8145 17.4533 43.8145 18.32C43.8145 19.1867 44.5017 19.9667 45.4468 19.9667H70.8763C71.8213 19.9667 72.5945 19.1867 72.5945 18.32C72.5945 17.4533 71.9072 16.6733 70.9622 16.6733Z" fill="#00B5FF"/>
<path d="M54.983 134.02H61.3404C63.7459 134.02 65.7218 132.113 65.7218 129.6V123.187C65.7218 120.76 63.7459 118.767 61.3404 118.767H54.983C52.5775 118.767 50.6016 120.76 50.6016 123.187V129.6C50.6016 132.027 52.5775 134.02 54.983 134.02ZM53.9521 123.273C53.9521 122.667 54.3816 122.233 54.983 122.233H61.3404C61.9418 122.233 62.3713 122.667 62.3713 123.273V129.687C62.3713 130.293 61.9418 130.727 61.3404 130.727H54.983C54.3816 130.727 53.9521 130.293 53.9521 129.687V123.273Z" fill="#00B5FF"/>
<path d="M26.6323 56.2799C27.5773 56.2799 28.3505 55.4999 28.2646 54.6332V48.3932C28.2646 47.5266 27.5773 46.7466 26.6323 46.7466C25.7732 46.7466 25 47.4399 25 48.3932V54.6332C25 55.4999 25.6873 56.2799 26.6323 56.2799Z" fill="#00B5FF"/>
<path d="M26.6323 37.4733C27.5773 37.4733 28.3505 36.78 28.2646 35.8267V33.8333C28.3505 33.66 28.3505 33.4867 28.3505 33.3133V28.8933V27.5067H87.9725V34.18V34.5267H91.323V34.18H91.4089V18.9267C91.4089 13.9867 87.457 10 82.5601 10H33.8488C28.9519 10 25 13.9867 25.0859 18.9267V25.2533C25 25.4267 25 25.6 25 25.7733V32.4467V33.3133V35.8267C25 36.6933 25.6873 37.4733 26.6323 37.4733ZM28.3505 18.9267C28.3505 15.8933 30.8419 13.38 33.8488 13.38H82.4742C85.4811 13.38 87.9725 15.8933 87.9725 18.9267V24.1267H28.3505V18.9267Z" fill="#00B5FF"/>
<path d="M87.9725 113.393H28.2646V72.2266V71.3599C28.2646 71.1866 28.2646 71.0999 28.1787 71.0132C28.1787 70.8399 28.2646 70.6666 28.2646 70.4932V67.1132C28.2646 66.2466 27.5773 65.4666 26.6323 65.4666C25.7732 65.4666 25 66.1599 25 67.1132V70.4932C25 70.6666 25 70.7532 25.0859 70.9266C25 71.0999 25 71.1866 25 71.3599V72.2266V115.04V131.073C25 136.013 28.9519 140 33.8488 140H82.4742C87.3711 140 91.323 136.013 91.323 131.073V115.04V104.9V103.513H87.9725V113.393ZM87.9725 131.073C87.9725 134.107 85.4811 136.62 82.4742 136.62H33.7629C30.756 136.62 28.2646 134.107 28.2646 131.073V116.687H87.9725V131.073Z" fill="#00B5FF"/>
</svg>
