<svg width="20" height="20" viewBox="0 0 20 20" fill="none" xmlns="http://www.w3.org/2000/svg">
<path d="M10.01 0C15.53 0 20 4.48 20 10C20 15.52 15.53 20 10.01 20C4.48 20 0 15.52 0 10C0 4.48 4.48 0 10.01 0ZM3.08 6H6.03C6.34298 4.76146 6.80643 3.5659 7.41 2.44C5.58589 3.068 4.04883 4.33172 3.08 6ZM10 2.04C9.17 3.24 8.52 4.57 8.09 6H11.91C11.48 4.57 10.83 3.24 10 2.04ZM17.74 12C17.9 11.36 18 10.69 18 10C18 9.31 17.9 8.64 17.74 8H14.36C14.44 8.66 14.5 9.32 14.5 10C14.5 10.68 14.44 11.34 14.36 12H17.74ZM16.92 14H13.97C13.65 15.25 13.19 16.45 12.59 17.56C14.416 16.9354 15.9542 15.6708 16.92 14ZM13.97 6H16.92C15.9542 4.32918 14.416 3.06457 12.59 2.44C13.1936 3.5659 13.657 4.76146 13.97 6ZM10 17.96C10.83 16.76 11.48 15.43 11.91 14H8.09C8.52 15.43 9.17 16.76 10 17.96ZM7.66 12H12.34C12.43 11.34 12.5 10.68 12.5 10C12.5 9.32 12.43 8.65 12.34 8H7.66C7.57 8.65 7.5 9.32 7.5 10C7.5 10.68 7.57 11.34 7.66 12ZM7.41 17.56C6.81 16.45 6.35 15.25 6.03 14H3.08C4.04883 15.6683 5.58589 16.932 7.41 17.56ZM5.64 12C5.56 11.34 5.5 10.68 5.5 10C5.5 9.32 5.56 8.66 5.64 8H2.26C2.1 8.64 2 9.31 2 10C2 10.69 2.1 11.36 2.26 12H5.64Z" fill="white"/>
</svg>
