<svg width="44" height="44" viewBox="0 0 44 44" fill="none" xmlns="http://www.w3.org/2000/svg">
<path d="M44 22C44 9.85143 34.1486 0 22 0C9.85143 0 0 9.85143 0 22C0 34.1486 9.85143 44 22 44C34.1486 44 44 34.1486 44 22ZM2.70857 22C2.70857 11.3829 11.3829 2.75429 22 2.75429C32.6171 2.75429 41.2457 11.3943 41.2457 22C41.2457 32.6057 32.6171 41.2457 22 41.2457C11.3829 41.2457 2.70857 32.6171 2.70857 22Z" fill="#6C6F7A"/>
<path d="M25.8985 32.153C25.977 31.9702 25.9994 31.7761 25.9994 31.5819V12.4166C26.0331 11.1945 24.5521 10.5207 23.6994 11.4001L14.3871 21.017C13.871 21.5424 13.871 22.4447 14.3871 22.9815L23.6994 32.587C24.3614 33.2951 25.5394 33.0553 25.8985 32.153C25.977 31.9702 25.6965 32.6555 25.8985 32.153C25.977 31.9702 25.6965 32.6555 25.8985 32.153C25.977 31.9702 25.6965 32.6555 25.8985 32.153ZM17.2481 21.9993L23.3179 15.7403V28.2697L17.2481 21.9993Z" fill="#6C6F7A"/>
</svg>
