<svg width="20" height="19" viewBox="0 0 20 19" fill="none" xmlns="http://www.w3.org/2000/svg">
<path d="M9.96274 0C15.4719 0 20 4.52809 20 10.1127C20 11.773 19.5472 13.4333 18.7925 14.9427V12.3013C18.7925 11.773 18.6416 11.3202 18.3397 10.9429C18.3397 10.641 18.4152 10.4146 18.4152 10.1127C18.4152 5.50917 14.6418 1.73577 10.0382 1.6603C5.43465 1.6603 1.66125 5.43371 1.66125 10.1127C1.66125 10.4146 1.66124 10.7165 1.73671 11.0183C1.43484 11.3957 1.28391 11.8485 1.28391 12.3013V15.0936C0.453754 13.5843 0.000946045 11.8485 0.000946045 10.1127C-0.074522 4.52809 4.3781 0 9.96274 0Z" fill="#484A51"/>
<path d="M18.1892 11.7731C18.2646 11.924 18.2646 12.075 18.2646 12.2259V14.7918V15.9993C18.2646 17.1313 16.9062 18.1124 15.1705 18.1124H13.8875V10.1128H15.095C16.6043 10.1128 17.8873 10.8675 18.1892 11.7731Z" fill="#484A51"/>
<path d="M1.73711 15.9993V14.7918V12.2259C1.73711 12.1504 1.73711 12.075 1.73711 11.924C1.96351 10.8675 3.24647 10.1128 4.8313 10.1128H6.11426V18.1124H4.8313C3.09553 18.1124 1.73711 17.2068 1.73711 15.9993Z" fill="#484A51"/>
</svg>
