<svg width="20" height="11" viewBox="0 0 20 11" fill="none" xmlns="http://www.w3.org/2000/svg">
<path d="M0.616663 1.4364e-06C0.535521 -0.000172436 0.455145 0.0154404 0.380162 0.0459413C0.305178 0.0764422 0.237069 0.121229 0.179754 0.177723C0.122439 0.234217 0.0770514 0.301303 0.0462027 0.375119C0.015354 0.448935 -0.000346425 0.528022 5.79746e-06 0.60783V10.3909C-0.000170164 10.4706 0.0156608 10.5495 0.0465884 10.6232C0.077516 10.6968 0.122932 10.7638 0.180229 10.8201C0.237526 10.8765 0.305575 10.9211 0.380471 10.9516C0.455367 10.982 0.535633 10.9975 0.616663 10.9974H19.3833V11C19.4644 11.0002 19.5446 10.9846 19.6195 10.9542C19.6944 10.9238 19.7625 10.8791 19.8198 10.8227C19.8771 10.7664 19.9225 10.6995 19.9534 10.6258C19.9843 10.5521 20.0002 10.4732 20 10.3935V0.60783C20.0002 0.528133 19.9843 0.449186 19.9534 0.375522C19.9225 0.301858 19.8771 0.234927 19.8198 0.178573C19.7625 0.122218 19.6944 0.077549 19.6195 0.0471301C19.5446 0.0167111 19.4644 0.00114108 19.3833 0.00131415L0.616663 1.4364e-06ZM3.12734 3.17043H3.97491V7.09965H6.14789V7.82695H3.12734V3.17043ZM7.0582 3.17043H7.90577V7.82695H7.0582V3.17043ZM8.71864 3.17043H9.65563L10.8476 6.85678H10.905L12.0876 3.17043H12.9885L11.3508 7.82695H10.3724L8.71864 3.17043ZM13.8041 3.17437H16.8687V3.89247H14.653V5.12651H16.7485V5.80523H14.653V7.10884H16.8687V7.83089H13.8041V3.17437Z" fill="#00B5FF"/>
</svg>
