<svg width="24" height="24" viewBox="0 0 24 24" fill="none" xmlns="http://www.w3.org/2000/svg">
<path fill-rule="evenodd" clip-rule="evenodd" d="M2.5 8C2.22386 8 2 8.22386 2 8.5V18.5C2 18.7761 2.22386 19 2.5 19H21.5C21.7761 19 22 18.7761 22 18.5V8.5C22 8.22386 21.7761 8 21.5 8H2.5ZM6.13602 12.474C6.09602 12.474 6.07602 12.494 6.07602 12.534V14.73C6.07602 14.854 6.07202 14.964 6.06402 15.06C6.05602 15.156 6.03602 15.236 6.00402 15.3C5.97602 15.368 5.93202 15.418 5.87202 15.45C5.81202 15.486 5.72802 15.504 5.62002 15.504H5.48802C5.44802 15.504 5.42802 15.524 5.42802 15.564V16.17C5.42802 16.21 5.44802 16.23 5.48802 16.23H5.76402C6.18802 16.23 6.48802 16.12 6.66402 15.9C6.84002 15.684 6.92802 15.348 6.92802 14.892V14.796C6.99602 14.88 7.07802 14.936 7.17402 14.964C7.26899 14.9877 7.38157 14.9997 7.51178 15C7.51241 15 7.51304 15 7.51367 15H7.51602H8.23367C8.43767 15 8.59567 14.98 8.70767 14.94C8.81967 14.896 8.90367 14.81 8.95967 14.682C9.01167 14.778 9.08767 14.856 9.18767 14.916C9.28767 14.972 9.41567 15 9.57167 15H9.80567C10.0017 15 10.1557 14.978 10.2677 14.934C10.3837 14.89 10.4697 14.806 10.5257 14.682C10.5777 14.778 10.6517 14.856 10.7477 14.916C10.8477 14.972 10.9757 15 11.1317 15H11.4617C11.7137 15 11.8937 14.94 12.0017 14.82C12.1097 14.696 12.1637 14.504 12.1637 14.244V12.534C12.1637 12.494 12.1437 12.474 12.1037 12.474H11.3717C11.3317 12.474 11.3117 12.494 11.3117 12.534V13.842C11.3117 13.922 11.3097 13.99 11.3057 14.046C11.3017 14.098 11.2897 14.142 11.2697 14.178C11.2497 14.21 11.2197 14.234 11.1797 14.25C11.1397 14.266 11.0817 14.274 11.0057 14.274C10.9017 14.274 10.8077 14.254 10.7237 14.214C10.6437 14.17 10.6037 14.08 10.6037 13.944V12.966C10.6037 12.926 10.5837 12.906 10.5437 12.906H9.81167C9.77167 12.906 9.75167 12.926 9.75167 12.966V13.848C9.75167 13.928 9.74767 13.996 9.73967 14.052C9.73567 14.104 9.72367 14.146 9.70367 14.178C9.68367 14.21 9.64967 14.234 9.60167 14.25C9.55767 14.266 9.49767 14.274 9.42167 14.274C9.32567 14.274 9.23767 14.252 9.15767 14.208C9.07767 14.164 9.03767 14.078 9.03767 13.95V12.966C9.03767 12.926 9.01767 12.906 8.97767 12.906H8.24567C8.20567 12.906 8.18567 12.926 8.18567 12.966V13.866C8.18567 14.022 8.16967 14.13 8.13767 14.19C8.10567 14.246 8.03167 14.274 7.91567 14.274H7.51602H7.51367H7.38402C7.24402 14.274 7.13402 14.246 7.05402 14.19C6.97802 14.13 6.93602 14.05 6.92802 13.95V12.534C6.92802 12.494 6.90802 12.474 6.86802 12.474H6.13602ZM9.32567 11.808C9.32567 11.848 9.34567 11.868 9.38567 11.868H9.98567C10.0257 11.868 10.0457 11.848 10.0457 11.808V11.22C10.0457 11.18 10.0257 11.16 9.98567 11.16H9.38567C9.34567 11.16 9.32567 11.18 9.32567 11.22V11.808ZM10.2497 11.808C10.2497 11.848 10.2697 11.868 10.3097 11.868H10.9157C10.9557 11.868 10.9757 11.848 10.9757 11.808V11.22C10.9757 11.18 10.9557 11.16 10.9157 11.16H10.3097C10.2697 11.16 10.2497 11.18 10.2497 11.22V11.808ZM9.79367 10.95C9.79367 10.99 9.81367 11.01 9.85367 11.01H10.4537C10.4937 11.01 10.5137 10.99 10.5137 10.95V10.362C10.5137 10.322 10.4937 10.302 10.4537 10.302H9.85367C9.81367 10.302 9.79367 10.322 9.79367 10.362V10.95ZM12.9317 10.92C12.8917 10.92 12.8717 10.94 12.8717 10.98V14.244C12.8717 14.504 12.9257 14.696 13.0337 14.82C13.1417 14.94 13.3217 15 13.5737 15H14.1677C14.1707 15 14.1736 15 14.1766 14.9999C14.1803 15 14.1841 15 14.1879 15H14.6679C14.8839 15 15.0519 14.982 15.1719 14.946C15.2919 14.906 15.3859 14.824 15.4539 14.7C15.5299 14.828 15.6239 14.91 15.7359 14.946C15.838 14.9788 15.9567 14.9967 16.092 14.9996C16.0977 14.9999 16.1035 15 16.1094 15C16.1133 15 16.1173 15 16.1213 15C16.1248 15 16.1284 15 16.1319 15C16.136 15 16.1401 14.9999 16.1441 14.9998C16.1914 14.9991 16.2438 14.9972 16.3014 14.994C16.3734 14.99 16.4474 14.978 16.5234 14.958C16.5994 14.934 16.6734 14.902 16.7454 14.862C16.8214 14.818 16.8874 14.756 16.9434 14.676C17.0634 14.812 17.2114 14.908 17.3874 14.964C17.5674 15.016 17.7634 15.042 17.9754 15.042C18.1634 15.042 18.3374 15.02 18.4974 14.976C18.6614 14.932 18.8014 14.86 18.9174 14.76C19.0374 14.656 19.1314 14.52 19.1994 14.352C19.2674 14.184 19.3014 13.978 19.3014 13.734C19.3014 13.47 19.2654 13.252 19.1934 13.08C19.1214 12.904 19.0234 12.764 18.8994 12.66C18.7794 12.556 18.6394 12.482 18.4794 12.438C18.3194 12.394 18.1514 12.372 17.9754 12.372C17.8034 12.372 17.6374 12.392 17.4774 12.432C17.3214 12.472 17.1814 12.54 17.0574 12.636C16.9374 12.732 16.8394 12.86 16.7634 13.02C16.6914 13.18 16.6554 13.378 16.6554 13.614V13.734C16.6474 13.942 16.6054 14.084 16.5294 14.16C16.4534 14.236 16.3714 14.274 16.2834 14.274H16.1319H16.1094H15.9939C15.8539 14.274 15.7439 14.246 15.6639 14.19C15.5879 14.13 15.5459 14.05 15.5379 13.95V12.534C15.5379 12.494 15.5179 12.474 15.4779 12.474H14.9259C14.8819 12.474 14.8299 12.476 14.7699 12.48C14.7139 12.484 14.6859 12.502 14.6859 12.534V13.794C14.6859 13.974 14.6679 14.1 14.6319 14.172C14.5999 14.24 14.5219 14.274 14.3979 14.274H14.1999C14.1952 14.274 14.1905 14.2742 14.1858 14.2745C14.1799 14.2742 14.1739 14.274 14.1677 14.274H14.0057C13.9057 14.274 13.8317 14.252 13.7837 14.208C13.7397 14.16 13.7177 14.076 13.7177 13.956V10.98C13.7177 10.94 13.6977 10.92 13.6577 10.92H12.9317ZM14.6739 16.164C14.6739 16.204 14.6939 16.224 14.7339 16.224H15.4779C15.5179 16.224 15.5379 16.204 15.5379 16.164V15.576C15.5379 15.536 15.5179 15.516 15.4779 15.516H14.7339C14.6939 15.516 14.6739 15.536 14.6739 15.576V16.164ZM17.4774 13.704C17.4774 13.3 17.6434 13.098 17.9754 13.098C18.3034 13.098 18.4674 13.3 18.4674 13.704C18.4674 13.932 18.4274 14.092 18.3474 14.184C18.2674 14.272 18.1434 14.316 17.9754 14.316C17.8114 14.316 17.6874 14.272 17.6034 14.184C17.5194 14.092 17.4774 13.932 17.4774 13.704Z" fill="#00B5FF"/>
</svg>
