<svg width="120" height="25" viewBox="0 0 120 25" fill="none" xmlns="http://www.w3.org/2000/svg">
<g clip-path="url(#clip0)">
<path d="M6.56232 5.01578H0V0.650879H17.8823V5.01578H11.32V24.245H6.56232V5.01578ZM51.7329 5.01578H45.1706V0.650879H63.1076V5.01578H56.5453V24.245H51.7329V5.01578ZM19.851 16.8128C19.9604 19.7621 21.3275 21.1187 23.7337 21.1187C25.4837 21.1187 26.9055 19.939 27.1789 18.8773H31.007C29.8039 22.8883 27.1789 24.5989 23.6243 24.5989C18.6479 24.5989 15.5308 20.8828 15.5308 15.6331C15.5308 10.5014 18.812 6.60838 23.6243 6.60838C29.0383 6.60838 31.6085 11.5042 31.3351 16.7538H19.851V16.8128ZM26.9055 13.8636C26.5227 11.5042 25.5384 10.2065 23.4603 10.2065C20.726 10.2065 19.9057 12.5069 19.851 13.8636H26.9055ZM33.5225 7.13925H37.6786V9.49866H37.7333C38.827 7.61113 40.7411 6.66737 42.5457 6.66737C47.194 6.66737 48.3424 9.49866 48.3424 13.6866V24.245H44.0222V14.5714C44.0222 11.7401 43.2566 10.3834 41.2332 10.3834C38.8817 10.3834 37.8427 11.7991 37.8427 15.2792V24.245H33.4678V7.13925H33.5225ZM68.3575 4.9568H64.0373V0.650879H68.3575V4.9568ZM64.0373 7.13925H68.4122V24.245H64.0373V7.13925ZM71.0918 7.13925H75.1932V9.43967H75.2479C76.3963 7.67012 78.0369 6.66737 80.0603 6.66737C82.029 6.66737 83.8336 7.43418 84.7086 9.49866C85.6382 8.02403 87.2788 6.66737 89.4663 6.66737C92.8568 6.66737 95.263 8.37794 95.263 12.8018V24.245H90.8881V14.5714C90.8881 12.271 90.724 10.3834 88.2085 10.3834C85.7476 10.3834 85.3101 12.5659 85.3101 14.6894V24.245H80.9899V14.6304C80.9899 12.6249 81.0993 10.3834 78.365 10.3834C77.49 10.3834 75.412 10.9733 75.412 14.3354V24.245H71.0918V7.13925ZM101.989 16.8128C102.099 19.7621 103.466 21.1187 105.872 21.1187C107.622 21.1187 109.044 19.939 109.317 18.8773H113.145C111.942 22.8883 109.317 24.5989 105.763 24.5989C100.786 24.5989 97.6692 20.8828 97.6692 15.6331C97.6692 10.5014 100.95 6.60838 105.763 6.60838C111.122 6.60838 113.747 11.5042 113.473 16.7538H101.989V16.8128ZM109.044 13.8636C108.661 11.5042 107.677 10.2065 105.599 10.2065C102.864 10.2065 102.044 12.5069 101.989 13.8636H109.044ZM117.137 19.2902C118.505 19.2902 119.762 20.3519 119.762 22.0035C119.762 23.6551 118.559 24.7758 117.137 24.7758C115.77 24.7758 114.512 23.7141 114.512 22.0035C114.512 20.3519 115.716 19.2902 117.137 19.2902ZM117.137 24.186C118.176 24.186 119.051 23.3012 119.051 22.0035C119.051 20.7648 118.176 19.88 117.137 19.88C116.044 19.88 115.223 20.7648 115.223 22.0035C115.223 23.3012 116.044 24.186 117.137 24.186ZM116.098 20.4699H117.192C117.903 20.4699 118.286 20.7058 118.286 21.3547C118.286 21.9445 117.958 22.1215 117.52 22.1805L118.286 23.5371H117.684L116.973 22.2395H116.645V23.5371H116.098V20.4699ZM116.645 21.7676H117.137C117.465 21.7676 117.684 21.7086 117.684 21.3547C117.684 21.0008 117.356 21.0008 117.083 21.0008H116.591V21.7676H116.645Z" fill="#F4F4F4"/>
</g>
<defs>
<clipPath id="clip0">
<rect width="119.708" height="24.1249" fill="white" transform="translate(0 0.650879)"/>
</clipPath>
</defs>
</svg>
