<svg width="26" height="10" viewBox="0 0 26 10" fill="none" xmlns="http://www.w3.org/2000/svg">
<path d="M0.0213267 8.33603C0.0141956 8.83297 0.01063 9.32991 -6.66476e-05 9.82685C-0.0036322 9.94928 0.0462855 9.99609 0.17108 9.99249C0.456324 9.98889 0.741568 9.99969 1.02681 9.99969C9.10635 9.99969 17.1823 9.99969 25.2619 9.99969C25.4508 9.99969 25.6434 9.99249 25.8324 9.99249C25.95 9.99249 26.0071 9.94568 26.0035 9.82324C25.9964 9.63239 25.9999 9.44154 25.9964 9.24708C25.9928 8.941 26.0142 8.63491 25.9821 8.33243C25.9857 8.27841 25.9964 8.2244 25.9964 8.17038C25.9964 5.51284 25.9964 2.85529 25.9999 0.19775C25.9999 0.0393058 25.95 -0.00390625 25.7967 -0.00390625C23.1011 -0.000305242 20.402 -0.000305242 17.7065 -0.000305242C11.9017 -0.000305242 6.09703 -0.000305242 0.295874 -0.000305242C0.0141956 -0.000305242 0.01063 0.00329576 0.01063 0.251765C0.01063 2.71125 0.01063 5.17074 0.01063 7.63023C0.00706446 7.8679 -0.0143289 8.10196 0.0213267 8.33603Z" fill="white"/>
<path d="M0.0213596 8.33633C-0.0142959 8.10227 0.00709737 7.8682 0.00709737 7.63774C0.00353182 5.17465 0.00353182 2.71516 0.00353182 0.255672C0.00353182 0.003601 0.0070974 0.00360101 0.288776 0.00360101C6.09349 0.00360101 11.8982 0.00360101 17.6994 0.00360101C20.3949 0.00360101 23.094 0.00360101 25.7896 0C25.9465 0 25.9928 0.0432121 25.9928 0.201656C25.9928 2.8592 25.9928 5.51674 25.9893 8.17429C25.9893 8.2283 25.9821 8.28232 25.975 8.33633C25.836 8.28232 25.6933 8.26431 25.5471 8.26431C24.8376 8.26791 24.1281 8.26071 23.4185 8.26431C23.308 8.26431 23.226 8.25351 23.2581 8.10947C23.3579 7.79258 23.4577 7.47569 23.5611 7.1624C23.9355 6.04609 24.3135 4.92618 24.6914 3.80987C24.7306 3.69463 24.7164 3.64422 24.5809 3.64422C23.8856 3.64782 23.1903 3.64782 22.495 3.64422C22.3916 3.64422 22.3381 3.67303 22.3061 3.78106C22.1242 4.41844 21.9317 5.05582 21.7427 5.69319C21.5716 6.28016 21.3968 6.86712 21.2257 7.45049C21.2114 7.4937 21.2114 7.55491 21.1544 7.56212C21.1116 7.56572 21.108 7.5189 21.0973 7.4865C20.9084 6.83831 20.723 6.19373 20.5268 5.54555C20.3486 4.95499 20.1632 4.36442 19.9849 3.77746C19.9671 3.71624 19.9599 3.65142 19.8637 3.65502C19.1434 3.65862 18.4267 3.65502 17.7065 3.65142C17.6138 3.65142 17.5781 3.68023 17.6138 3.78466C17.9097 4.66331 18.2021 5.54195 18.4945 6.4242C18.687 7.00756 18.876 7.59453 19.065 8.18149C19.0471 8.32193 18.9402 8.26431 18.8724 8.26431C17.9561 8.26791 17.0397 8.26791 16.1234 8.26431C16.0663 8.26431 16.0057 8.27872 15.9522 8.24271C15.9522 8.18869 15.9522 8.13828 15.9522 8.08426L15.9558 8.09146C15.9522 7.18761 15.9522 6.28016 15.9451 5.37631C15.9451 5.23947 16.0022 5.21426 16.1163 5.21426C16.455 5.21786 16.7937 5.21426 17.1324 5.21786C17.2465 5.21786 17.2893 5.17465 17.2893 5.05942C17.2858 4.6525 17.2858 4.24199 17.2893 3.83507C17.2893 3.70544 17.2501 3.65502 17.1146 3.65862C16.7866 3.66583 16.4621 3.65502 16.1341 3.66223C16.0022 3.66583 15.9594 3.62621 15.9594 3.48938C15.9665 3.00324 15.9629 2.5171 15.9629 2.03097C15.9629 1.84732 15.9451 1.83651 15.7882 1.90133C15.6884 1.94454 15.585 1.98416 15.4852 2.02377C14.904 2.24703 14.3228 2.47029 13.738 2.68995C13.6382 2.72596 13.574 2.77638 13.5776 2.89521C13.5812 3.09327 13.5633 3.29132 13.5847 3.48938C13.6025 3.64422 13.5384 3.66223 13.4171 3.65862C13.2638 3.65142 13.1069 3.66943 12.9536 3.65502C12.8039 3.64422 12.7718 3.70904 12.7753 3.84228C12.7825 4.15916 12.7718 4.47965 12.7789 4.79654C12.786 5.25027 12.6755 5.21786 13.1889 5.21786C13.5776 5.21786 13.574 5.21426 13.574 5.61757C13.574 6.47461 13.5812 7.33165 13.5847 8.18869C13.5348 8.23911 13.4813 8.26791 13.3993 8.26791C13.1069 8.26431 12.811 8.26791 12.5186 8.26791C12.458 8.26791 12.401 8.27151 12.3653 8.2067C12.3653 7.39647 12.3689 6.58624 12.3617 5.77962C12.3582 5.29708 12.3011 4.81815 12.0551 4.39323C11.7057 3.79186 11.1494 3.52539 10.4898 3.43176C9.54851 3.30212 8.732 3.51458 8.16151 4.34642C8.1116 4.42204 8.07951 4.43284 8.02602 4.33921C7.52328 3.41376 6.48927 3.27692 5.64067 3.50738C5.15575 3.64062 4.76711 3.9287 4.49969 4.36802C4.48186 4.39683 4.4676 4.44004 4.42125 4.41844C4.38203 4.40043 4.38916 4.35722 4.38916 4.32481C4.38916 4.15556 4.38916 3.98992 4.39629 3.82067C4.39986 3.70184 4.3642 3.65142 4.23228 3.65142C3.56908 3.65502 2.90233 3.65502 2.23557 3.65142C2.1179 3.65142 2.08581 3.69103 2.08581 3.80987C2.08938 4.92978 2.08938 6.05329 2.08938 7.17321C2.08938 7.52251 2.08581 7.8682 2.08225 8.2175C2.0252 8.27512 1.95389 8.26791 1.88258 8.26791C1.42975 8.26791 0.980493 8.26791 0.527668 8.27151C0.363653 8.26431 0.185375 8.24631 0.0213596 8.33633Z" fill="#21274B"/>
<path d="M15.9558 8.23871C16.0093 8.27472 16.0699 8.26031 16.1269 8.26031C17.0433 8.26031 17.9596 8.26391 18.876 8.26031C18.9437 8.26031 19.0543 8.32153 19.0685 8.17749C19.147 8.30352 19.2718 8.25311 19.3752 8.25311C20.591 8.25671 21.8069 8.24951 23.0227 8.25671C23.1546 8.25671 23.2224 8.2243 23.2545 8.10547C23.2224 8.24951 23.308 8.26031 23.4149 8.26031C24.1245 8.26031 24.834 8.26391 25.5436 8.26031C25.6933 8.26031 25.8324 8.27832 25.9714 8.33233C26.0035 8.63842 25.9821 8.9445 25.9857 9.24699C25.9893 9.43784 25.9857 9.63229 25.9928 9.82315C25.9964 9.94918 25.9429 9.996 25.8217 9.99239C25.6327 9.98879 25.4402 9.9996 25.2512 9.9996C17.1716 9.9996 9.09568 9.9996 1.01614 9.9996C0.730892 9.9996 0.445648 9.98879 0.160404 9.99239C0.03561 9.996 -0.0107422 9.94918 -0.0107422 9.82675C-0.00361108 9.32981 0.00352002 8.83287 0.0106511 8.33593C0.174666 8.24591 0.352944 8.26391 0.527656 8.26391C0.980481 8.26031 1.42974 8.26031 1.88257 8.26031C1.95388 8.26031 2.02519 8.26751 2.08224 8.2099C2.12502 8.26031 2.18564 8.26031 2.24625 8.26031C2.9558 8.26031 3.66534 8.26391 4.37489 8.26751C4.43193 8.26751 4.46403 8.25311 4.49255 8.2135C4.49611 8.25311 4.49968 8.29272 4.49968 8.29632C5.00955 8.2171 5.5123 8.28912 6.01147 8.25671C6.78876 8.26031 7.56605 8.26391 8.34334 8.27111C8.39326 8.27111 8.41822 8.24591 8.44675 8.2135C8.4824 8.28552 8.54658 8.26031 8.60363 8.26391C8.77478 8.26751 8.94592 8.27111 9.11707 8.26391C9.39875 8.25311 9.68043 8.29992 9.9621 8.2351C9.99419 8.24591 10.0299 8.26391 10.0619 8.26391C10.7893 8.26751 11.5203 8.26391 12.2476 8.26751C12.2975 8.26751 12.3403 8.25671 12.3617 8.2063C12.3938 8.27111 12.4544 8.26751 12.515 8.26751C12.8074 8.26751 13.1034 8.26391 13.3957 8.26751C13.4742 8.26751 13.5277 8.23871 13.5811 8.18829C13.6061 8.30352 13.7059 8.26391 13.7701 8.26391C14.2301 8.26751 14.6936 8.27111 15.1535 8.26031C15.4245 8.24951 15.6919 8.28192 15.9558 8.23871Z" fill="#C32328"/>
<path d="M12.3725 8.19875C12.3511 8.25277 12.3083 8.25997 12.2584 8.25997C11.531 8.25997 10.8001 8.25997 10.0727 8.25637C10.0406 8.25637 10.005 8.23476 9.97286 8.22756C9.97286 7.41373 9.98356 6.59631 9.97286 5.78248C9.96929 5.516 9.85163 5.20632 9.40594 5.12709C8.95668 5.04427 8.42184 5.24233 8.44324 5.89051C8.46107 6.46667 8.4468 7.04283 8.4468 7.61899C8.4468 7.81705 8.42541 8.0151 8.46107 8.20956C8.43254 8.23837 8.40402 8.26717 8.35766 8.26717C7.58037 8.25997 6.80308 8.25637 6.02579 8.25277C6.02579 7.44974 6.02936 6.64672 6.02936 5.8437C6.02936 5.42958 5.87248 5.22792 5.48027 5.12349C4.99892 4.99386 4.514 5.29994 4.50687 5.76807C4.49261 6.5819 4.50687 7.39933 4.50687 8.21316C4.47835 8.25637 4.44626 8.26717 4.38921 8.26717C3.67966 8.25997 2.97012 8.25997 2.26057 8.25997C2.19996 8.25997 2.14291 8.25997 2.09656 8.20956C2.10012 7.86386 2.10369 7.51456 2.10369 7.16527C2.10369 6.04535 2.10369 4.92184 2.10012 3.80192C2.10012 3.68309 2.13221 3.64348 2.24988 3.64348C2.91307 3.64708 3.57983 3.65068 4.24658 3.64348C4.37494 3.64348 4.41417 3.69389 4.4106 3.81273C4.40347 3.98197 4.40347 4.14762 4.40347 4.31687C4.40347 4.35288 4.39277 4.39249 4.43556 4.41049C4.48191 4.4321 4.49617 4.38889 4.514 4.36008C4.78142 3.92076 5.17006 3.63268 5.65498 3.49944C6.50358 3.26898 7.53759 3.40581 8.04033 4.33127C8.09381 4.4249 8.12234 4.4141 8.17582 4.33847C8.74988 3.50664 9.56282 3.29418 10.5041 3.42382C11.1638 3.51384 11.7235 3.78392 12.0694 4.38529C12.3154 4.81021 12.3725 5.28914 12.376 5.77168C12.3725 6.5819 12.3689 7.38853 12.3725 8.19875Z" fill="white"/>
<path d="M23.258 8.10588C23.2224 8.22471 23.1582 8.26072 23.0263 8.25712C21.8104 8.24992 20.5945 8.25352 19.3787 8.25352C19.2753 8.25352 19.1505 8.30393 19.0721 8.1779C18.8831 7.59093 18.6941 7.00757 18.5016 6.4206C18.2092 5.53836 17.9168 4.65971 17.6209 3.78106C17.5852 3.67664 17.6244 3.64783 17.7136 3.64783C18.4338 3.64783 19.1505 3.65143 19.8707 3.65143C19.967 3.65143 19.9706 3.71265 19.992 3.77386C20.1738 4.36443 20.3592 4.95139 20.5339 5.54196C20.7265 6.18654 20.9155 6.83472 21.1044 7.4829C21.1151 7.51531 21.1187 7.56572 21.1615 7.55852C21.2221 7.55132 21.2221 7.4901 21.2328 7.44689C21.4039 6.85993 21.5786 6.27296 21.7498 5.6896C21.9388 5.05222 22.1277 4.41484 22.3131 3.77746C22.3452 3.66943 22.3987 3.64062 22.5021 3.64062C23.1974 3.64423 23.8927 3.64423 24.588 3.64062C24.7235 3.64062 24.7377 3.69104 24.6985 3.80627C24.3206 4.92258 23.9426 6.0389 23.5682 7.15881C23.4577 7.4757 23.3614 7.79259 23.258 8.10588Z" fill="white"/>
<path d="M15.9557 8.23863C15.6919 8.28184 15.4245 8.24943 15.1606 8.25303C14.7007 8.26383 14.2371 8.26023 13.7772 8.25663C13.713 8.25663 13.6132 8.29624 13.5882 8.18101C13.5846 7.32397 13.5811 6.46693 13.5775 5.60989C13.5775 5.21018 13.5811 5.21018 13.1924 5.21018C12.6754 5.21018 12.7895 5.24259 12.7824 4.78886C12.7753 4.47197 12.786 4.15148 12.7788 3.83459C12.7753 3.70135 12.8074 3.63294 12.9571 3.64734C13.1104 3.65814 13.2673 3.64374 13.4206 3.65094C13.5419 3.65454 13.606 3.64014 13.5882 3.48169C13.5668 3.28724 13.5846 3.08558 13.5811 2.88753C13.5775 2.76869 13.6417 2.71828 13.7415 2.68227C14.3263 2.46261 14.9075 2.23935 15.4886 2.01608C15.5921 1.97647 15.6919 1.93686 15.7917 1.89365C15.9486 1.82883 15.9664 1.84323 15.9664 2.02328C15.9664 2.50942 15.97 2.99556 15.9629 3.48169C15.9593 3.61853 16.0057 3.65814 16.1376 3.65454C16.4656 3.64734 16.7901 3.65814 17.1181 3.65094C17.2536 3.64734 17.2964 3.69775 17.2928 3.82739C17.2893 4.2343 17.2893 4.64482 17.2928 5.05173C17.2928 5.16697 17.25 5.21378 17.1359 5.21018C16.7972 5.20658 16.4585 5.21018 16.1198 5.20658C16.0057 5.20658 15.945 5.23178 15.9486 5.36862C15.9557 6.27247 15.9557 7.17993 15.9593 8.08378L15.9557 8.07658C15.9557 8.1342 15.9557 8.18821 15.9557 8.23863Z" fill="white"/>
<path d="M15.9523 8.08398L15.9558 8.09119C15.9558 8.08759 15.9523 8.08398 15.9523 8.08398Z" fill="#C32328"/>
<path d="M8.45752 8.20983C8.42186 8.01178 8.44325 7.81372 8.44325 7.61927C8.43969 7.04311 8.45752 6.46694 8.43969 5.89078C8.4183 5.239 8.95313 5.04455 9.40239 5.12737C9.84451 5.21019 9.96574 5.51628 9.96931 5.78275C9.98 6.59658 9.96931 7.41401 9.96931 8.22784C9.6912 8.29265 9.40595 8.24584 9.12427 8.25664C8.95313 8.26385 8.78198 8.26025 8.61084 8.25664C8.55735 8.26025 8.49317 8.28185 8.45752 8.20983Z" fill="#21274B"/>
<path d="M4.49962 8.21331C4.49962 7.39949 4.48536 6.58206 4.49962 5.76823C4.50676 5.3001 4.99167 4.99401 5.47302 5.12365C5.8688 5.22808 6.02212 5.43333 6.02212 5.84385C6.02212 6.64687 6.02212 7.4499 6.01855 8.25292C5.51937 8.28533 5.01663 8.21331 4.50676 8.29254C4.51032 8.29254 4.50319 8.25292 4.49962 8.21331Z" fill="#21274B"/>
</svg>
