<svg width="14" height="15" viewBox="0 0 14 15" fill="none" xmlns="http://www.w3.org/2000/svg">
<g clip-path="url(#clip0_5025_2965)">
<path d="M10.5818 14.4431C10.6518 14.4143 10.7794 14.3773 10.8906 14.3075C11.8624 13.6786 12.7518 12.951 13.5342 12.0961C13.9419 11.6521 13.9213 11.4466 13.4271 11.0931C12.5665 10.4765 11.6647 9.91753 10.7094 9.45716C10.1288 9.17765 10.0341 9.20642 9.60585 9.69557C9.35878 9.97918 9.1076 10.2546 8.86053 10.5382C8.79876 10.6081 8.737 10.6204 8.6464 10.5916C7.69932 10.3286 6.86341 9.85587 6.11397 9.22698C5.02276 8.31035 4.24862 7.17176 3.84096 5.79888C3.81213 5.70845 3.82449 5.64679 3.89449 5.58103C4.19097 5.32207 4.48745 5.05489 4.78393 4.79594C5.22453 4.40133 5.25336 4.31091 4.99805 3.77655C4.52863 2.79005 3.9439 1.87342 3.31388 0.98557C3.248 0.89514 3.16564 0.812932 3.08329 0.738944C2.91857 0.59919 2.78681 0.590969 2.60562 0.710171C2.5068 0.775938 2.41209 0.845815 2.32561 0.923913C1.51029 1.67201 0.822625 2.52698 0.188487 3.43127C0.00318721 3.69023 -0.0256372 3.9533 0.0278939 4.25747C0.213194 5.28919 0.604383 6.24692 1.11499 7.15532C2.08678 8.8817 3.35918 10.3573 4.8704 11.6316C5.96985 12.5564 7.15165 13.3456 8.48993 13.8964C9.14054 14.1636 9.81174 14.3609 10.5818 14.4431Z" fill="white"/>
<path d="M10.578 14.4431C9.80793 14.3609 9.13673 14.1595 8.48201 13.8923C7.14784 13.3456 5.96192 12.5564 4.86248 11.6275C3.35125 10.3532 2.07886 8.87759 1.10706 7.15121C0.600576 6.24692 0.209387 5.28919 0.0240866 4.25747C-0.0294445 3.9533 -0.000620077 3.69023 0.180562 3.43127C0.810582 2.52698 1.50237 1.67201 2.31769 0.923913C2.40416 0.845815 2.49887 0.771828 2.5977 0.710171C2.77888 0.590969 2.91065 0.59919 3.07536 0.738944C3.16183 0.812932 3.24419 0.89514 3.30596 0.98557C3.93598 1.87342 4.5207 2.79005 4.99013 3.77655C5.24543 4.31091 5.21661 4.40134 4.776 4.79594C4.47952 5.059 4.18716 5.32207 3.88656 5.58103C3.81656 5.64268 3.80421 5.70434 3.83303 5.79888C4.24069 7.17176 5.01484 8.31035 6.10605 9.22698C6.85137 9.85587 7.68727 10.3286 8.63848 10.5916C8.72907 10.6163 8.79084 10.6081 8.85261 10.5382C9.09967 10.2546 9.35497 9.97919 9.59792 9.69557C10.0262 9.20642 10.1209 9.17765 10.7015 9.45716C11.6568 9.91753 12.5586 10.4765 13.4192 11.0931C13.9134 11.4466 13.9339 11.6521 13.5263 12.0961C12.7439 12.9469 11.8545 13.6786 10.8827 14.3075C10.7797 14.3773 10.648 14.4143 10.578 14.4431Z" fill="white"/>
</g>
<defs>
<clipPath id="clip0_5025_2965">
<rect width="13.8151" height="13.8151" fill="white" transform="translate(0 0.629883)"/>
</clipPath>
</defs>
</svg>
