<svg width="14" height="10" viewBox="0 0 14 10" fill="none" xmlns="http://www.w3.org/2000/svg">
<g clip-path="url(#clip0_5617_38333)">
<path d="M8.22887 4.75679C8.10143 4.44028 7.87386 4.26223 7.61899 4.10397C6.39012 3.34235 5.16125 2.57084 3.94148 1.79933C3.06762 1.24542 2.19376 0.691512 1.3199 0.147496C0.673602 -0.248152 0.00910273 0.17717 0 0.978357C0 1.05749 0 1.14651 0 1.22564C0 3.79735 0 6.36906 0 8.94077C0 9.84087 0.655397 10.2662 1.37451 9.82109C3.40442 8.54512 5.44343 7.26916 7.47334 5.99319C7.77373 5.80526 8.08322 5.63711 8.21066 5.23157C8.22887 6.33939 8.21977 7.41753 8.22887 8.50556C8.22887 9.1386 8.68401 9.60348 9.26658 9.60348C9.83095 9.60348 10.277 9.1287 10.277 8.50556C10.2861 6.16134 10.2861 3.82702 10.2679 1.48281C10.2679 1.28498 10.1951 1.05749 10.0949 0.879445C9.86736 0.464014 9.39402 0.285973 8.96619 0.414558C8.52926 0.553035 8.22887 0.968465 8.21977 1.47292C8.22887 2.58073 8.22887 3.66876 8.22887 4.75679ZM14 5.00407C14 3.85669 14 2.70932 14 1.57183C14 0.879445 13.5631 0.394776 12.9623 0.394776C12.3706 0.394776 11.9337 0.879445 11.9337 1.55205C11.9246 3.8468 11.9246 6.15145 11.9428 8.44621C11.9428 8.69349 12.052 8.98034 12.1795 9.19794C12.4161 9.5837 12.8986 9.70239 13.2991 9.54413C13.7178 9.38587 13.9909 8.97044 13.9909 8.46599C14.0091 7.31861 14 6.16134 14 5.00407Z" fill="white"/>
<path d="M8.22887 4.75679C8.22887 3.66876 8.22887 2.58073 8.22887 1.4927C8.22887 0.988248 8.52926 0.572818 8.97529 0.434341C9.40312 0.295864 9.87646 0.473906 10.104 0.889336C10.2042 1.06738 10.2679 1.28498 10.277 1.4927C10.2861 3.83691 10.2861 6.17124 10.2861 8.51545C10.2861 9.1386 9.83095 9.60348 9.27568 9.61337C8.69311 9.61337 8.24707 9.14849 8.23797 8.51545C8.22887 7.42742 8.23797 6.33939 8.21977 5.24146C8.10143 5.647 7.78283 5.81515 7.48244 6.00309C5.44343 7.27905 3.41352 8.55502 1.38362 9.83098C0.655397 10.2662 0 9.84087 0 8.94077C0 6.36906 0 3.79735 0 1.22564C0 1.14651 0 1.05749 0 0.978357C0.00910273 0.17717 0.673602 -0.248152 1.3199 0.147496C2.19376 0.691512 3.06762 1.23553 3.94148 1.78944C5.17035 2.56095 6.39012 3.33246 7.61899 4.09408C7.87386 4.25234 8.10143 4.44028 8.22887 4.75679Z" fill="white"/>
<path d="M14.0009 5.00529C14.0009 6.16256 14.0009 7.30994 14.0009 8.46721C14.0009 8.97166 13.7278 9.38709 13.3091 9.54535C12.9086 9.70361 12.4261 9.58492 12.1895 9.19916C12.0529 8.99144 11.9528 8.7046 11.9528 8.44743C11.9346 6.15267 11.9437 3.84802 11.9437 1.55327C11.9437 0.870773 12.3806 0.395996 12.9723 0.395996C13.5731 0.395996 14.01 0.880665 14.01 1.57305C14.01 2.72043 14.0009 3.86781 14.0009 5.00529Z" fill="white"/>
</g>
<defs>
<clipPath id="clip0_5617_38333">
<rect width="14" height="10" fill="white"/>
</clipPath>
</defs>
</svg>
