<svg width="44" height="44" viewBox="0 0 44 44" fill="none" xmlns="http://www.w3.org/2000/svg">
<path d="M0 22C0 9.85143 9.85143 0 22 0C34.1486 0 44 9.85143 44 22C44 34.1486 34.1486 44 22 44C9.85143 44 0 34.1486 0 22ZM41.2914 22C41.2914 11.3829 32.6171 2.75429 22 2.75429C11.3829 2.75429 2.75429 11.3943 2.75429 22C2.75429 32.6057 11.3829 41.2457 22 41.2457C32.6171 41.2457 41.2914 32.6171 41.2914 22Z" fill="#6C6F7A"/>
<path d="M18.1015 32.153C18.023 31.9702 18.0006 31.7761 18.0006 31.5819V12.4166C17.9669 11.1945 19.4479 10.5207 20.3006 11.4001L29.6129 21.017C30.129 21.5424 30.129 22.4447 29.6129 22.9815L20.3006 32.587C19.6386 33.2951 18.4606 33.0553 18.1015 32.153C18.023 31.9702 18.3035 32.6555 18.1015 32.153C18.023 31.9702 18.3035 32.6555 18.1015 32.153C18.023 31.9702 18.3035 32.6555 18.1015 32.153ZM26.7519 21.9993L20.6821 15.7403V28.2697L26.7519 21.9993Z" fill="#6C6F7A"/>
</svg>
