<svg width="19" height="16" viewBox="0 0 19 16" fill="none" xmlns="http://www.w3.org/2000/svg">
<path d="M12.1629 7.87329C12.1629 8.27499 11.947 8.59635 11.6591 8.75703L8.99621 10.4442C8.85227 10.5245 8.70833 10.6048 8.49242 10.6048C7.98864 10.6048 7.55682 10.1228 7.55682 9.56043V6.18616C7.55682 5.62378 7.98864 5.14174 8.49242 5.14174C8.63636 5.14174 8.85227 5.22208 8.99621 5.30242L11.6591 6.98956C12.0189 7.15024 12.1629 7.55194 12.1629 7.87329ZM19 0.723058V15.2645C19 15.6662 18.7121 15.9876 18.3523 15.9876H17.8485C17.4886 15.9876 17.2008 15.6662 17.2008 15.2645C17.2008 15.1039 17.1288 15.0235 16.9848 15.0235H15.1932C15.0492 15.0235 14.9773 15.1039 14.9773 15.2645C14.9773 15.6662 14.6894 15.9876 14.3295 15.9876H4.88636C4.52652 15.9876 4.23864 15.6662 4.23864 15.2645C4.23864 15.1039 4.16667 15.0235 4.02273 15.0235H2.15909C2.01515 15.0235 1.94318 15.1039 1.94318 15.2645C1.94318 15.6662 1.6553 15.9876 1.29545 15.9876H0.647727C0.287879 16.0679 0 15.7466 0 15.3449V0.723058C0 0.321359 0.287879 0 0.647727 0H1.29545C1.6553 0 1.94318 0.321359 1.94318 0.723058C1.94318 0.883737 2.01515 0.964077 2.15909 0.964077H3.95076C4.0947 0.964077 4.16667 0.883737 4.16667 0.723058C4.16667 0.321359 4.52652 0 4.88636 0H14.2576C14.6174 0 14.9053 0.321359 14.9053 0.723058C14.9053 0.883737 14.9773 0.964077 15.1212 0.964077H16.9129C17.0568 0.964077 17.1288 0.883737 17.1288 0.723058C17.1288 0.321359 17.4167 0 17.7765 0H18.2803C18.7121 0 19 0.321359 19 0.723058ZM17.2727 3.30239C17.2727 3.14171 17.1288 2.98103 16.9848 2.98103H15.3371C15.1932 2.98103 15.0492 3.14171 15.0492 3.30239V5.70412C15.0492 5.8648 15.0492 6.02548 15.3371 6.02548H16.9848C17.1288 6.02548 17.2727 5.8648 17.2727 5.70412V3.30239ZM15.3371 12.8459H16.9848C17.1288 12.8459 17.2727 12.6852 17.2727 12.5245V10.1228C17.2727 9.96213 17.1288 9.80145 16.9848 9.80145H15.3371C15.1932 9.80145 15.0492 9.96213 15.0492 10.1228V12.5245C15.0492 12.6852 15.1212 12.8459 15.3371 12.8459ZM4.16667 3.30239C4.16667 3.14171 4.02273 2.98103 3.87879 2.98103H2.23106C2.08712 2.98103 1.94318 3.14171 1.94318 3.30239V5.70412C1.94318 5.8648 2.0625 6.02548 2.23106 6.02548H3.87879C4.02273 6.02548 4.16667 5.8648 4.16667 5.70412V3.30239ZM2.23106 12.8459H3.87879C4.02273 12.8459 4.16667 12.6852 4.16667 12.5245V10.1228C4.16667 9.96213 4.02273 9.80145 3.87879 9.80145H2.23106C2.08712 9.80145 1.94318 9.96213 1.94318 10.1228V12.5245C1.94318 12.6852 2.08712 12.8459 2.23106 12.8459ZM14.0341 3.53495C14.0341 3.29393 13.8902 3.13325 13.6742 3.13325H5.39773C5.18182 3.13325 5.03788 3.29393 5.03788 3.53495V12.6133C5.03788 12.8544 5.18182 13.015 5.39773 13.015H13.6742C13.8902 13.015 14.0341 12.8544 14.0341 12.6133V3.53495Z" fill="#484A51"/>
</svg>
